<svg id="Layer_1" data-name="Layer 1" xmlns="http://www.w3.org/2000/svg" viewBox="0 0 63.7 64.51"><defs><style>.cls-1{fill:none;stroke:#67bae8;stroke-linecap:round;stroke-linejoin:round;stroke-width:6px;}</style></defs><path class="cls-1" d="M158.82,123.49l-34.38,28.19a15.38,15.38,0,0,0-1.86,21.69l.52.62a15.41,15.41,0,0,0,21.7,1.87L176.65,149" transform="translate(-115.96 -117.97)"/><path class="cls-1" d="M169.61,121.85" transform="translate(-115.96 -117.97)"/><path class="cls-1" d="M169.86,121.69a10.31,10.31,0,0,1,2.83,17.48l-32.91,27.71c-3.23,2.53-6,.94-7.35-.89-4-5.44,1.16-8.05,31.89-33.93" transform="translate(-115.96 -117.97)"/><path class="cls-1" d="M169.86,121.69a10.31,10.31,0,0,0-8.06.2A15.42,15.42,0,0,1,169.86,121.69Z" transform="translate(-115.96 -117.97)"/><path class="cls-1" d="M139.78,166.88l32.91-27.71a10.31,10.31,0,0,0-2.83-17.48,15.42,15.42,0,0,0-8.06.2,14.79,14.79,0,0,0-3,1.6" transform="translate(-115.96 -117.97)"/><path class="cls-1" d="M125.24,165.63" transform="translate(-115.96 -117.97)"/></svg>