<svg id="Layer_1" data-name="Layer 1" xmlns="http://www.w3.org/2000/svg" viewBox="0 0 9.6 9.59"><defs><style>.cls-1{fill:#505050;}</style></defs><path class="cls-1" d="M337.28,55.45a4.78,4.78,0,1,1-1.4-3.4A4.65,4.65,0,0,1,337.28,55.45Zm-.78,0a4,4,0,0,0-6.86-2.85,4,4,0,0,0,2.84,6.86,4,4,0,0,0,4-4Zm-3-2.48a.86.86,0,0,1-.29.65,1,1,0,0,1-.7.27,1,1,0,0,1-.69-.27.82.82,0,0,1-.29-.65.84.84,0,0,1,.29-.65,1,1,0,0,1,.69-.27,1,1,0,0,1,.7.27A.87.87,0,0,1,333.47,53ZM333.29,59h-1.62V54.46h1.62Z" transform="translate(-327.68 -50.65)"/></svg>