<svg xmlns="http://www.w3.org/2000/svg" xmlns:xlink="http://www.w3.org/1999/xlink" viewBox="0 0 120.29 114.22"><defs><style>.cls-1{fill:url(#linear-gradient);}.cls-2{isolation:isolate;}.cls-3{fill:#324446;}.cls-4{fill:#4e6566;}.cls-16,.cls-5,.cls-8,.cls-9{fill:#0b2025;}.cls-23,.cls-28,.cls-5{opacity:0.5;}.cls-16,.cls-17,.cls-21,.cls-28,.cls-5,.cls-8{mix-blend-mode:multiply;}.cls-6{mask:url(#mask);}.cls-7{fill:#18aec8;opacity:0.7;}.cls-8{opacity:0;}.cls-21,.cls-24,.cls-9{opacity:0.4;}.cls-10{fill:#fcc90d;}.cls-11{fill:#db8616;}.cls-12{fill:url(#linear-gradient-2);}.cls-13{fill:url(#linear-gradient-3);}.cls-14{fill:#ffcd2e;}.cls-15{fill:#d8810e;}.cls-16,.cls-17{opacity:0.2;}.cls-17{fill:url(#radial-gradient);}.cls-18{fill:#aa160b;}.cls-19{fill:#cccacb;}.cls-20{fill:#b5c0c9;}.cls-21,.cls-26{fill:#90a3af;}.cls-22{fill:#f8ffff;}.cls-23{fill:#b3c0c6;}.cls-24{fill:#5ac7d3;mix-blend-mode:darken;}.cls-25{fill:#fff;}.cls-27{fill:#d11f11;}.cls-28,.cls-33{fill:#b71d0d;}.cls-29{fill:#e08b0e;}.cls-30{fill:#ffd140;}.cls-31{fill:#e58e0e;}.cls-32{fill:#bf2105;}.cls-34{fill:#d31c04;}.cls-35{fill:#ff3912;}</style><linearGradient id="linear-gradient" x1="355.28" y1="73.92" x2="334.13" y2="73.92" gradientUnits="userSpaceOnUse"><stop offset="0" stop-color="#fff"/><stop offset="0.11" stop-color="#dadada"/><stop offset="0.36" stop-color="#8d8d8d"/><stop offset="0.58" stop-color="#515151"/><stop offset="0.77" stop-color="#252525"/><stop offset="0.91" stop-color="#0a0a0a"/><stop offset="1"/></linearGradient><mask id="mask" x="56.5" y="22.21" width="64.87" height="60.23" maskUnits="userSpaceOnUse"><g transform="translate(-252.25 -21.59)"><rect class="cls-1" x="308.75" y="43.8" width="64.87" height="60.23"/></g></mask><linearGradient id="linear-gradient-2" x1="26.03" y1="56.95" x2="28.01" y2="56.95" gradientUnits="userSpaceOnUse"><stop offset="0" stop-color="#fff200"/><stop offset="1" stop-color="#f7941e"/></linearGradient><linearGradient id="linear-gradient-3" x1="988.19" y1="449.51" x2="1021.29" y2="453.2" gradientTransform="translate(-616.53 -313.08) scale(0.89)" gradientUnits="userSpaceOnUse"><stop offset="0" stop-color="#fff200"/><stop offset="0.46" stop-color="#fbc010"/><stop offset="0.81" stop-color="#f8a01a"/><stop offset="1" stop-color="#f7941e"/></linearGradient><radialGradient id="radial-gradient" cx="311.17" cy="139.49" r="34.77" gradientUnits="userSpaceOnUse"><stop offset="0" stop-color="#231f20"/><stop offset="0.22" stop-color="#534f50"/><stop offset="1" stop-color="#fff"/></radialGradient></defs><g class="cls-2"><g id="Layer_1" data-name="Layer 1"><path class="cls-3" d="M347.2,76.27c.08,2.46-18.5,15.69-37.26,15.85-19.06.16-38.3-12.78-38.3-15.83V87.78c0,3,12.73,14,38.3,14,24.3,0,37.34-11.57,37.26-14Z" transform="translate(-252.25 -21.59)"/><path class="cls-3" d="M347.2,76.35h0v0Z" transform="translate(-252.25 -21.59)"/><path class="cls-4" d="M347.18,75.91c-.62-7.5-17.29-13.51-37.76-13.51s-37.15,6-37.76,13.52c0,.15,0,.29,0,.43,0,7.64,16.64,15.67,37.28,15.77h1.29c20.49-.15,37-8.15,37-15.75v0C347.2,76.2,347.19,76.06,347.18,75.91Z" transform="translate(-252.25 -21.59)"/><path class="cls-3" d="M345.23,44.33,309.42,63.88,273.61,44.33l.07,31.43c0,2.88,11.16,13.59,36.23,13.59,27,0,35.33-11.27,35.25-13.59Z" transform="translate(-252.25 -21.59)"/><path class="cls-5" d="M273.66,69c0-4,6.06-4.22,14.34-.5,13.82,6.2,29.68,20.85,41.08,18.48,10.74-3.09,15.2-8.33,16-10.56l.12-1.19,0-14.39c-.52,0-14.58-.44-28.52-.9l-7.25,4-8.23-4.49c-7.22-.27-12.38-.49-12.28-.58.3-.3-14.41-2.72-14.41-2.72l-.86.51Z" transform="translate(-252.25 -21.59)"/><g class="cls-6"><polygon class="cls-7" points="92.97 50.15 92.97 38.6 81.48 43.57 82.09 64.12 92.29 55.39 92.97 50.15"/></g><path class="cls-8" d="M290.55,79.9A57.27,57.27,0,0,0,309.41,83c22,0,35.75-8.19,35.75-14.39l.07-21.86L309.42,43.2l-35.81,2.53.07,18.89c0,5.14,5.67,10.71,14.47,14.36Z" transform="translate(-252.25 -21.59)"/><polygon class="cls-3" points="96.11 22.32 57.15 4.79 18.51 22.32 0 25.94 0 29.76 0 29.76 57.15 55.14 114.81 29.76 114.81 29.76 114.81 25.94 96.11 22.32"/><polygon class="cls-4" points="57.15 0 0 25.94 57.15 51.32 114.81 25.94 57.15 0"/><path class="cls-9" d="M310.23,44.23s-26,7.72-29.93,14.68a10,10,0,0,0-.86,3.43l2.26,1.31a15.31,15.31,0,0,1,.41-3.75c3.94-6.89,30.37-14.84,30.37-14.84Z" transform="translate(-252.25 -21.59)"/><path class="cls-5" d="M314.67,44.6c0,1.34-2.27,2.43-5.08,2.43s-5.07-1.09-5.07-2.43,2.27-2.43,5.07-2.43S314.67,43.26,314.67,44.6Z" transform="translate(-252.25 -21.59)"/><path class="cls-10" d="M278.79,72c-.1-2.13-.44-11.3,1-13.82,3.64-6.43,27.1-13.71,29.49-14.44l.89.68c-4.4,1.32-25.63,8-29.27,14.35-1.43,2.5-1,11.11-.85,13Z" transform="translate(-252.25 -21.59)"/><path class="cls-11" d="M306,45.73l1.5-.43s-.69-.73-.8-.79-.65.22-.65.22l-.29.12C306,44.8,306.3,45.6,306,45.73Z" transform="translate(-252.25 -21.59)"/><path class="cls-3" d="M314.32,43.37c0,1.25-2.12,2.26-4.73,2.26s-4.72-1-4.72-2.26,2.11-2.26,4.72-2.26S314.32,42.12,314.32,43.37Z" transform="translate(-252.25 -21.59)"/><rect class="cls-12" x="26.03" y="53.77" width="1.98" height="6.36"/><path class="cls-13" d="M286.06,97.67a107.7,107.7,0,0,0-2-13.33c-1-4.55-2.12-8.71-4.9-8.71-6.33,0-7.06,20.31-6.93,22a3.53,3.53,0,0,0,2.05,2.89,7.11,7.11,0,0,0,1.47.52,14.47,14.47,0,0,0,3.41.35,11.22,11.22,0,0,0,1.79-.09c.71-.12,1-.16,1.43-.24C285.23,100.47,286.06,98.82,286.06,97.67Z" transform="translate(-252.25 -21.59)"/><path class="cls-14" d="M279.78,75.71a2.89,2.89,0,0,0-.6-.08c-.31.19-.72.45-1.25.81-4.18,2.78-5.32,17.18-5.34,22.57a4.15,4.15,0,0,0,1.65,1.55,7.11,7.11,0,0,0,1.47.52,13.28,13.28,0,0,0,1.32.23c.09-9.15,1.23-23.32,1.9-24.77C278.93,76.54,279.43,76.09,279.78,75.71Z" transform="translate(-252.25 -21.59)"/><path class="cls-15" d="M284.76,100a3,3,0,0,0,1.3-2.36c0-1.49-.61-22-6.94-22a3.24,3.24,0,0,0-2.31,1.06c-.37.52,2.77.72,3.74,2.16,2.28,3.43,4.23,9.88,4.23,21A.78.78,0,0,1,284.76,100Z" transform="translate(-252.25 -21.59)"/><path class="cls-16" d="M352.19,107.8c-4.58,1.58-8.48,3.12-12.34,4.81-2.06-5.11-15.32-9-31.38-9-17.48,0-31.65,4.67-31.65,10.43s13.77,10.3,30.92,10.43c-5.28.85-9.06,2.57-9.06,4.5,0,2.35,2.85,5.27,6.74,6.24,5.24,1.31,7.66.3,9.17-.2,8.87-3,47.26-19.26,49.69-20.65C367.08,112.7,355.89,106.52,352.19,107.8Z" transform="translate(-252.25 -21.59)"/><path class="cls-17" d="M352.06,108.27a76.33,76.33,0,0,0-12.21,4.34c-2.06-5.11-15.32-9-31.38-9-17.48,0-31.65,4.67-31.65,10.43s13.77,10.3,30.92,10.43c-5.28.85-9.06,2.57-9.06,4.5,0,2.35,2.85,5.27,6.74,6.24,5.24,1.31,7.66.3,9.17-.2,8.87-3,47.26-19.26,49.69-20.65C367.08,112.7,355.64,107.35,352.06,108.27Z" transform="translate(-252.25 -21.59)"/><path class="cls-18" d="M337.79,94.81c4.43,6,5.27,12.84,1.88,15.36s-9.74-.27-14.17-6.24-5.27-12.85-1.87-15.36S333.36,88.84,337.79,94.81Z" transform="translate(-252.25 -21.59)"/><path class="cls-19" d="M355.65,62l0,0c3-2.49,8.8-.59,13,4.28,3.91,4.59,5,10.18,2.68,13L312.39,132.9l-15.76-17.37Z" transform="translate(-252.25 -21.59)"/><path class="cls-20" d="M299.24,128.79c-1.84-2.16-3.57-4.31-4.1-6.52-.2-.85,1.76-1.87,1.38-2.59a3.91,3.91,0,0,1,.56-4.41c3-2.56,8.83-.67,13,4.24s5.16,11,2.16,13.51S303.43,133.69,299.24,128.79Z" transform="translate(-252.25 -21.59)"/><path class="cls-21" d="M338.83,82.69h0c2-1.68,5.93-.4,8.73,2.89,2.65,3.09,3.39,6.86,1.82,8.74l.05.07-39.77,36.07s2.07-3.7-1.88-8.43c-3.59-4.3-7.42-3-7.42-3Z" transform="translate(-252.25 -21.59)"/><path class="cls-21" d="M306.93,121.43c-.59-.69-4.15,3.33-4.65,2.67-1.92-2.57-2.66-3.68-1.06-5,2-1.73,3.76-.32,6.58,3s3.81,6.78,1.79,8.51c-.87.74.82-.7.77-2.32C310.3,126.09,308.53,123.31,306.93,121.43Z" transform="translate(-252.25 -21.59)"/><path class="cls-22" d="M310.1,119.51c-4.19-4.91-10-6.8-13-4.24-.13.11-.24.23-.36.35l-.09-.09,59-53.52,0,0c3-2.49,8.8-.59,13,4.28,3.91,4.59,5,10.18,2.68,13l-58.48,54-.45-.35C315.22,130.27,314.23,124.34,310.1,119.51Z" transform="translate(-252.25 -21.59)"/><path class="cls-23" d="M344.91,97.12c0-.05,3.34,1.83,3.32,1.78l24.28-23.07c.2-4.23-2.3-7.68-3.88-9.53-.31-.37-.63-.71-.95-1l-24,21.48c.13-.52.2-.8.34-1.34l-2,.2c0-.52,0-.78-.07-1.31l-1.94.49c-.18-.47-.27-.71-.44-1.18l-1.78.73-.77-1-1.55.91-1-.78-1.28,1L331.84,84l-1,1.15-1.39-.32L328.78,86l-1.48-.08c-.15.47-.22.71-.37,1.19l-1.51.15c0,.46,0,.69-.06,1.15l-1.5.37.25,1.09-1.44.59c.22.39.32.59.55,1l-1.33.79c.33.33.49.5.84.81l-1.19,1a11.67,11.67,0,0,0,1.1.63l-1,1.14a9.09,9.09,0,0,0,1.34.4l-.75,1.28c.61.06.93.08,1.58.11l-.5,1.39c.68,0,1-.07,1.72-.13-.08.59-.12.88-.19,1.47l1.77-.39c0,.61.06.92.13,1.5l.87-.31L309,117.7l2.58,2.28,2.61,9.54,29.21-26.59c.23,0-.86-3.39-.55-3.41,0-.26,0-.49,0-.7l1.85-1.7Z" transform="translate(-252.25 -21.59)"/><path class="cls-24" d="M371.32,79.29a5.65,5.65,0,0,0,1.21-3.46h0L349.06,98.08l-8.78,7.68-25.19,23-2.49,4.35.24.19Z" transform="translate(-252.25 -21.59)"/><path class="cls-25" d="M310.9,134.74a6.07,6.07,0,0,0,3.74-3.65c1.18-3.09.19-7.23-2.65-11-5.26-7.07-10.56-7.83-13.77-6.19a4.23,4.23,0,0,0-2.26,2.61c-.82,2.79,1.25,6.38,2.36,8.31l.16.28c1.43,2.48,7.13,7.37,10.34,6.08a3.44,3.44,0,0,0,2.07-2c.73-2-.56-4.44-1.25-5.76l-.1-.19c-.94-1.81-5.55-6.37-8.17-5.08A2.57,2.57,0,0,0,299.9,120c-.29,1.66,1,3.67,1.86,4.62a.72.72,0,1,0,1-1c-.7-.73-1.66-2.3-1.47-3.36a1.12,1.12,0,0,1,.68-.84c1.39-.69,5.39,2.81,6.25,4.46l.1.19c.55,1,1.68,3.21,1.18,4.59a2.06,2.06,0,0,1-1.26,1.16c-2,.82-7.14-3-8.54-5.46l-.17-.29c-1-1.74-2.87-5-2.23-7.17a2.83,2.83,0,0,1,1.54-1.73c2.56-1.31,7.23-.59,11.95,5.76,2.55,3.42,3.47,7,2.46,9.68a4.73,4.73,0,0,1-3.6,3c-3.75.75-11-3.37-13.87-11.55a.72.72,0,0,0-1.36.48c3.15,9,11.16,13.36,15.52,12.48A6.53,6.53,0,0,0,310.9,134.74Z" transform="translate(-252.25 -21.59)"/><path class="cls-26" d="M337.62,94.32c-3.27-3.82-7.4-6-10.79-6.17l-3.41,3.09a1.42,1.42,0,0,0,.46-.25c2.64-2,8.74.67,12.25,4.78,4,4.63,5.35,10,2.79,13.42l3-2.8C342.58,103,341,98.31,337.62,94.32Z" transform="translate(-252.25 -21.59)"/><path class="cls-18" d="M338.22,93.71c-4.78-5.59-11.42-7.78-14.88-4.91l-.53.55-.47,1,.16.45c.92-.76,1,.38,2-.38,2.64-2,8.75.66,12.26,4.77,4.07,4.76,5.42,10.36,2.55,13.71-.26.31.5.9.24,1.21,0,0,.22,0,.27,0a15.82,15.82,0,0,0,1.51-1.46C344,105.4,342.72,99,338.22,93.71Z" transform="translate(-252.25 -21.59)"/><path class="cls-27" d="M344.66,88c-4.78-5.6-11.42-7.78-14.88-4.92l0,0-6.29,5.67c3.51-2.62,10-.43,14.73,5.06,4.5,5.26,5.76,11.68,3.08,14.89l6.47-5.78C350.42,99.65,349.16,93.23,344.66,88Z" transform="translate(-252.25 -21.59)"/><path class="cls-28" d="M344.66,88l-.1-.11a13.93,13.93,0,0,0-3,.26c-.1.18-3.21,2.63-4.89,4a22,22,0,0,1,1.55,1.63,17.62,17.62,0,0,1,4.45,9.8l6.45-6A17.78,17.78,0,0,0,344.66,88Z" transform="translate(-252.25 -21.59)"/><g class="cls-2"><polygon class="cls-29" points="100.42 67.79 100.19 69.15 84.93 69.84 84.47 68.5 100.42 67.79"/><polygon class="cls-30" points="97.06 63.24 100.42 67.79 84.47 68.5 88.79 63.46 97.06 63.24"/></g><g class="cls-2"><polygon class="cls-29" points="85.24 76.85 85.7 78.19 77.48 73.52 77.02 72.18 85.24 76.85"/><polygon class="cls-29" points="94.81 74.32 95.27 75.66 85.7 78.19 85.24 76.85 94.81 74.32"/><polygon class="cls-30" points="84.34 68.65 94.81 74.32 85.24 76.85 77.02 72.18 84.34 68.65"/></g><polygon class="cls-31" points="86.93 75.18 87.38 74.04 89.09 73.84 89.19 72.74 90.92 72.32 90.88 72.2 84.34 68.65 77.02 72.18 84.06 76.18 84.53 76.27 85.32 75.14 86.93 75.18"/><polygon class="cls-32" points="87.33 57.49 88.26 60.17 88.51 61.18 87.59 58.5 87.33 57.49"/><polygon class="cls-33" points="70.3 65.11 71.23 67.79 70.61 66.91 69.69 64.23 70.3 65.11"/><polygon class="cls-33" points="89.31 58.07 90.24 60.74 90.13 61.84 89.21 59.16 89.31 58.07"/><polygon class="cls-33" points="69.69 66.63 70.61 69.31 69.68 68.61 68.75 65.93 69.69 66.63"/><polygon class="cls-33" points="90.91 58.96 91.84 61.64 91.37 62.78 90.45 60.1 90.91 58.96"/><polygon class="cls-33" points="69.55 68.1 70.47 70.78 69.26 70.28 68.33 67.6 69.55 68.1"/><polygon class="cls-33" points="92.06 60.14 92.99 62.82 92.19 63.95 91.26 61.27 92.06 60.14"/><polygon class="cls-33" points="69.89 69.44 70.82 72.12 69.37 71.85 68.45 69.17 69.89 69.44"/><polygon class="cls-33" points="92.71 61.55 93.63 64.22 92.53 65.3 91.6 62.62 92.71 61.55"/><polygon class="cls-33" points="70.7 70.61 71.63 73.29 70.02 73.25 69.09 70.58 70.7 70.61"/><polygon class="cls-33" points="92.82 63.12 93.74 65.79 92.39 66.76 91.47 64.08 92.82 63.12"/><polygon class="cls-33" points="71.95 71.55 72.87 74.23 71.17 74.43 70.24 71.75 71.95 71.55"/><polygon class="cls-33" points="92.4 64.78 93.32 67.46 91.78 68.28 90.85 65.61 92.4 64.78"/><polygon class="cls-33" points="73.57 72.22 74.49 74.9 72.77 75.33 71.84 72.65 73.57 72.22"/><polygon class="cls-34" points="91.47 66.48 92.39 69.16 90.72 69.8 89.79 67.12 91.47 66.48"/><polygon class="cls-34" points="75.49 72.59 76.42 75.27 74.74 75.91 73.82 73.23 75.49 72.59"/><polygon class="cls-33" points="89.79 67.12 90.72 69.8 90.98 70.8 90.05 68.12 89.79 67.12"/><polygon class="cls-34" points="90.05 68.12 90.98 70.8 89.25 71.23 88.33 68.55 90.05 68.12"/><polygon class="cls-34" points="77.64 72.64 78.56 75.32 77.02 76.14 76.1 73.46 77.64 72.64"/><polygon class="cls-33" points="76.1 73.46 77.02 76.14 76.42 75.27 75.49 72.59 76.1 73.46"/><polygon class="cls-33" points="88.23 69.65 89.15 72.33 87.44 72.52 86.52 69.84 88.23 69.65"/><polygon class="cls-34" points="88.33 68.55 89.25 71.23 89.15 72.33 88.23 69.65 88.33 68.55"/><polygon class="cls-34" points="79.92 72.37 80.84 75.05 79.49 76.02 78.57 73.34 79.92 72.37"/><polygon class="cls-33" points="78.57 73.34 79.49 76.02 78.56 75.32 77.64 72.64 78.57 73.34"/><polygon class="cls-33" points="86.06 70.98 86.99 73.66 85.38 73.62 84.46 70.94 86.06 70.98"/><polygon class="cls-34" points="86.52 69.84 87.44 72.52 86.99 73.66 86.06 70.98 86.52 69.84"/><polygon class="cls-34" points="82.22 71.8 83.15 74.48 82.05 75.55 81.13 72.87 82.22 71.8"/><polygon class="cls-33" points="81.13 72.87 82.05 75.55 80.84 75.05 79.92 72.37 81.13 72.87"/><polygon class="cls-33" points="83.67 72.08 84.59 74.75 83.15 74.48 82.22 71.8 83.67 72.08"/><path class="cls-35" d="M342,88.7l.27,1-1.73.42-.1,1.1-1.7.2-.46,1.14-1.61,0-.79,1.13-1.44-.28-1.1,1.08L332.16,94l-1.35,1-.93-.71-1.54.83-.6-.88-1.68.64-.25-1-1.72.43.1-1.09-1.7.2L323,92.2l-1.61,0,.8-1.13-1.45-.27,1.1-1.08-1.21-.5,1.35-1-.93-.71,1.55-.82-.62-.87,1.68-.64-.26-1,1.72-.42.1-1.1,1.71-.19.45-1.15,1.61,0,.79-1.14,1.45.28,1.09-1.07,1.21.5,1.35-1,.93.7,1.54-.82.61.87,1.67-.64.25,1,1.73-.43-.11,1.1,1.71-.2-.47,1.14,1.62,0-.81,1.14,1.45.27-1.1,1.07,1.21.5-1.35,1,.94.7-1.55.82.61.87Zm-14.49,4.4" transform="translate(-252.25 -21.59)"/><polygon class="cls-34" points="84.46 70.94 85.38 73.62 84.59 74.75 83.67 72.08 84.46 70.94"/></g></g></svg>