<svg id="Layer_1" data-name="Layer 1" xmlns="http://www.w3.org/2000/svg" viewBox="0 0 25.82 47.04"><defs><style>.cls-1{fill:#867c7c;}.cls-2{fill:#d3d3d3;opacity:0.72;}.cls-3{fill:#fff;}</style></defs><path class="cls-1" d="M73,9.72H52.64a2.74,2.74,0,0,0-2.74,2.74V54a2.75,2.75,0,0,0,2.74,2.75H73A2.75,2.75,0,0,0,75.72,54V12.46A2.74,2.74,0,0,0,73,9.72Zm-14.89,2H67.5a.25.25,0,0,1,.24.25.25.25,0,0,1-.24.25H58.08a.25.25,0,0,1-.25-.25A.25.25,0,0,1,58.08,11.71ZM73.33,52.22h-21v-38h21Z" transform="translate(-49.9 -9.72)"/><path class="cls-2" d="M62.22,54.3a1.13,1.13,0,1,0,1-1A1.14,1.14,0,0,0,62.22,54.3Z" transform="translate(-49.9 -9.72)"/><path class="cls-3" d="M62.88,54.73v-.67a.13.13,0,0,1,.13-.14h.68a.13.13,0,0,1,.13.14v.67a.13.13,0,0,1-.13.14H63A.13.13,0,0,1,62.88,54.73ZM63,54a.1.1,0,0,0-.1.1v.67a.1.1,0,0,0,.1.1h.68a.1.1,0,0,0,.1-.1v-.67a.1.1,0,0,0-.1-.1Z" transform="translate(-49.9 -9.72)"/></svg>