<svg id="Layer_1" data-name="Layer 1" xmlns="http://www.w3.org/2000/svg" viewBox="0 0 22.99 15.04"><defs><style>.cls-1{fill:#505050;}</style></defs><path class="cls-1" d="M350.88,63c-6.35,0-11.5,3.36-11.5,7.52s5.15,7.52,11.5,7.52,11.49-3.37,11.49-7.52S357.23,63,350.88,63Zm-6,11.6a4.16,4.16,0,0,1-2.06-.52l.27-.87a3.65,3.65,0,0,0,1.87.53c1.06,0,1.69-.57,1.69-1.38s-.43-1.19-1.52-1.61c-1.32-.47-2.14-1.15-2.14-2.29a2.33,2.33,0,0,1,2.61-2.2,3.72,3.72,0,0,1,1.79.4l-.29.85a3.24,3.24,0,0,0-1.53-.38c-1.1,0-1.52.66-1.52,1.21,0,.75.49,1.13,1.6,1.56,1.37.53,2.07,1.19,2.07,2.37S346.76,74.64,344.85,74.64Zm5.72,0a4.13,4.13,0,0,1-2.06-.52l.26-.87a3.78,3.78,0,0,0,1.87.52c1.07,0,1.7-.56,1.7-1.38s-.44-1.18-1.53-1.6c-1.32-.47-2.13-1.15-2.13-2.29a2.33,2.33,0,0,1,2.61-2.2,3.6,3.6,0,0,1,1.79.4l-.29.85a3.24,3.24,0,0,0-1.53-.38c-1.11,0-1.53.66-1.53,1.21,0,.75.49,1.12,1.61,1.56,1.37.52,2.06,1.18,2.06,2.37S352.48,74.64,350.57,74.64Zm5.6,0a4.25,4.25,0,0,1-2.06-.51l.26-.88a3.68,3.68,0,0,0,1.87.53c1.07,0,1.69-.56,1.69-1.38s-.43-1.19-1.52-1.61c-1.32-.46-2.13-1.15-2.13-2.29a2.32,2.32,0,0,1,2.61-2.19,3.73,3.73,0,0,1,1.79.39l-.29.85a3.33,3.33,0,0,0-1.54-.38c-1.1,0-1.52.66-1.52,1.21,0,.76.49,1.13,1.61,1.56,1.36.53,2.06,1.19,2.06,2.38S358.08,74.69,356.17,74.69Z" transform="translate(-339.38 -63.04)"/></svg>