<svg id="Layer_1" data-name="Layer 1" xmlns="http://www.w3.org/2000/svg" viewBox="0 0 23.85 23.46"><defs><style>.cls-1{fill:#505050;}.cls-2{fill:none;stroke:#505050;stroke-linecap:round;stroke-linejoin:round;stroke-width:2px;}</style></defs><path class="cls-1" d="M364.26,62.11H344a1.77,1.77,0,0,0-1.77,1.77V76.72A1.78,1.78,0,0,0,344,78.5h20.31A1.78,1.78,0,0,0,366,76.72V63.88A1.77,1.77,0,0,0,364.26,62.11Zm0,12.29a2.12,2.12,0,0,1-2.12,2.12H346.22a2.12,2.12,0,0,1-2.12-2.12V66a2.12,2.12,0,0,1,2.12-2.12H362.1A2.12,2.12,0,0,1,364.22,66Z" transform="translate(-342.18 -55.03)"/><polyline class="cls-2" points="5.85 1 11.85 7.44 18.22 1.07"/></svg>